HIERARCHY
ROOT Hips
{
 OFFSET 0.000000 0.000000 0.000000
 CHANNELS 6 Xposition Yposition Zposition Yrotation Xrotation Zrotation
 JOINT Chest
 {
  OFFSET 0.000000 9.588913 -0.003946
  CHANNELS 3 Yrotation Xrotation Zrotation
  JOINT Chest2
  {
   OFFSET 0.000000 9.541882 0.008053
   CHANNELS 3 Yrotation Xrotation Zrotation
   JOINT Chest3
   {
    OFFSET 0.000000 9.501360 0.000000
    CHANNELS 3 Yrotation Xrotation Zrotation
    JOINT Chest4
    {
     OFFSET 0.000000 9.491660 0.000000
     CHANNELS 3 Yrotation Xrotation Zrotation
     JOINT Neck
     {
      OFFSET 0.000000 14.331917 0.000000
      CHANNELS 3 Yrotation Xrotation Zrotation
      JOINT Head
      {
       OFFSET 0.000000 8.884799 0.017034
       CHANNELS 3 Yrotation Xrotation Zrotation
       End Site
       {
        OFFSET 0.000000 16.896195 0.008993
       }
      }
     }
     JOINT RightCollar
     {
      OFFSET -2.923010 9.499495 0.000000
      CHANNELS 3 Yrotation Xrotation Zrotation
      JOINT RightShoulder
      {
       OFFSET -13.795216 0.000000 0.000000
       CHANNELS 3 Yrotation Xrotation Zrotation
       JOINT RightElbow
       {
        OFFSET -30.272209 0.000000 0.000000
        CHANNELS 3 Yrotation Xrotation Zrotation
        JOINT RightWrist
        {
         OFFSET -24.478199 0.000000 0.000000
         CHANNELS 3 Yrotation Xrotation Zrotation
         End Site
         {
          OFFSET -18.090752 0.000000 0.000000
         }
        }
       }
      }
     }
     JOINT LeftCollar
     {
      OFFSET 2.923010 9.499495 0.000000
      CHANNELS 3 Yrotation Xrotation Zrotation
      JOINT LeftShoulder
      {
       OFFSET 13.795216 0.000000 0.000000
       CHANNELS 3 Yrotation Xrotation Zrotation
       JOINT LeftElbow
       {
        OFFSET 30.272209 0.000000 0.000000
        CHANNELS 3 Yrotation Xrotation Zrotation
        JOINT LeftWrist
        {
         OFFSET 24.478199 0.000000 0.000000
         CHANNELS 3 Yrotation Xrotation Zrotation
         End Site
         {
          OFFSET 18.090752 0.000000 0.000000
         }
        }
       }
      }
     }
    }
   }
  }
 }
 JOINT RightHip
 {
  OFFSET -7.826875 0.019532 0.001973
  CHANNELS 3 Yrotation Xrotation Zrotation
  JOINT RightKnee
  {
   OFFSET 0.000000 -40.546152 -0.001885
   CHANNELS 3 Yrotation Xrotation Zrotation
   JOINT RightAnkle
   {
    OFFSET 0.000000 -39.417092 -0.003189
    CHANNELS 3 Yrotation Xrotation Zrotation
    JOINT RightToe
    {
     OFFSET 0.000000 -7.579396 17.243563
     CHANNELS 3 Yrotation Xrotation Zrotation
     End Site
     {
      OFFSET 0.000000 -1.500329 6.694466
     }
    }
   }
  }
 }
 JOINT LeftHip
 {
  OFFSET 7.826875 0.019532 0.001973
  CHANNELS 3 Yrotation Xrotation Zrotation
  JOINT LeftKnee
  {
   OFFSET 0.000000 -40.546152 -0.001885
   CHANNELS 3 Yrotation Xrotation Zrotation
   JOINT LeftAnkle
   {
    OFFSET 0.000000 -39.417092 -0.003189
    CHANNELS 3 Yrotation Xrotation Zrotation
    JOINT LeftToe
    {
     OFFSET 0.000000 -7.579396 17.243563
     CHANNELS 3 Yrotation Xrotation Zrotation
     End Site
     {
      OFFSET 0.000000 -1.500329 6.694466
     }
    }
   }
  }
 }
}
MOTION
Frames: 5
Frame Time: 0.008333
0.000000 87.345680 0.000000 0.000000 -5.767889 0.000000 0.000000 11.653876 0.000000 0.000000 -5.885988 0.000000 0.000000 -0.000000 0.000000 0.000000 -0.000000 0.000000 0.000000 12.528808 0.000000 0.000000 0.711711 0.000000 0.000000 -0.000000 0.000000 0.000000 -0.000000 0.000000 2.309063 -0.000000 0.000000 -2.309063 -0.000000 -0.000000 0.000000 -0.000000 0.000000 0.000000 0.000000 0.000000 -2.309063 0.000000 0.000000 2.309063 -0.000000 0.000000 0.000000 8.520374 0.000000 0.000000 1.905768 0.000000 -0.000000 -4.658254 0.000000 0.000000 -0.000000 0.000000 0.000000 8.520374 0.000000 0.000000 1.905768 0.000000 -0.000000 -4.658254 0.000000 0.000000 -0.000000 0.000000
-15.438816 88.904213 -9.871646 -165.280137 -6.592977 -1.214575 1.336382 3.276175 0.695312 0.732636 1.875179 0.559447 0.918778 2.342837 0.703149 0.732636 1.875179 0.559447 -3.777291 25.607437 0.082233 -4.146286 2.224903 0.951906 -2.507273 0.002223 -0.014221 -12.029568 0.324721 85.822733 10.361469 7.567793 3.834830 0.476797 -3.875850 -2.007901 -2.188421 0.775769 -0.349739 10.699070 -5.815137 -89.221521 -2.353629 -6.044904 -1.249035 1.281833 5.088031 0.637590 -10.490715 11.409504 -4.427770 3.337311 1.122076 -0.935629 -1.073129 -5.621937 4.818101 0.034227 -0.372797 0.021224 15.139411 9.123839 3.367977 -5.996481 0.981071 0.590339 0.094062 -4.845367 -0.776136 0.025792 0.381166 0.011342
-15.440941 88.903898 -9.873360 -165.288802 -6.596293 -1.212851 1.337512 3.275477 0.692811 0.733289 1.874422 0.558362 0.919588 2.341892 0.701794 0.733289 1.874422 0.558362 -3.775875 25.606702 0.088083 -4.146069 2.224034 0.957976 -2.508569 0.003886 -0.013861 -12.029792 0.322642 85.822571 10.368024 7.580531 3.837328 0.474449 -3.871537 -2.012172 -2.187756 0.778446 -0.345997 10.697528 -5.805344 -89.227260 -2.353147 -6.040960 -1.248394 1.288035 5.089980 0.635050 -10.482217 11.412135 -4.432119 3.336104 1.123208 -0.933135 -1.073282 -5.624000 4.817542 0.034130 -0.371634 0.020977 15.147721 9.129382 3.365683 -5.996353 0.983233 0.592722 0.094350 -4.850819 -0.775436 0.025633 0.383044 0.010937
-15.443377 88.903510 -9.875231 -165.295247 -6.599870 -1.211738 1.337580 3.275514 0.689730 0.733226 1.874291 0.557093 0.919502 2.341731 0.700207 0.733226 1.874291 0.557093 -3.772109 25.605987 0.096026 -4.143747 2.223109 0.965796 -2.510185 0.003746 -0.014291 -12.029126 0.319390 85.823447 10.371857 7.590174 3.842833 0.474081 -3.870431 -2.016043 -2.187210 0.777180 -0.342553 10.694733 -5.791937 -89.227261 -2.355078 -6.036708 -1.251721 1.294778 5.092431 0.630149 -10.476600 11.415236 -4.434698 3.335063 1.124661 -0.934269 -1.074232 -5.625971 4.819784 0.033736 -0.370918 0.020208 15.153748 9.134855 3.362964 -5.999481 0.986589 0.595844 0.097722 -4.858367 -0.773078 0.024918 0.385820 0.009237
-15.445907 88.903069 -9.877145 -165.298004 -6.603444 -1.212381 1.337038 3.276381 0.687604 0.732584 1.874582 0.556071 0.918694 2.342098 0.698926 0.732584 1.874582 0.556071 -3.768513 25.605192 0.104953 -4.141838 2.222114 0.974730 -2.513982 0.000166 -0.015663 -12.027834 0.317294 85.824247 10.376512 7.594855 3.848179 0.472135 -3.873254 -2.016725 -2.187316 0.774091 -0.339313 10.690061 -5.779899 -89.224469 -2.357045 -6.032136 -1.259106 1.298439 5.095728 0.625043 -10.476810 11.418279 -4.435382 3.334577 1.127043 -0.936322 -1.076733 -5.627806 4.822378 0.033342 -0.370683 0.019445 15.157400 9.137971 3.360168 -6.007294 0.994362 0.601773 0.103385 -4.870117 -0.771845 0.024410 0.389771 0.007596
